<svg version="1.1" xmlns="http://www.w3.org/2000/svg" xmlns:xlink="http://www.w3.org/1999/xlink" width="277.66431" height="326.59772" viewBox="0,0,277.66431,326.59772"><defs><radialGradient cx="241" cy="180" r="163.29886" gradientUnits="userSpaceOnUse" id="color-1"><stop offset="0" stop-color="#616161"/><stop offset="1" stop-color="#272727"/></radialGradient><linearGradient x1="238.42801" y1="24.56476" x2="238.42801" y2="337.43525" gradientUnits="userSpaceOnUse" id="color-2"><stop offset="0" stop-color="#6affe9"/><stop offset="1" stop-color="#1693e3"/></linearGradient></defs><g transform="translate(-102.16784,-16.70114)"><g data-paper-data="{&quot;isPaintingLayer&quot;:true}" fill-rule="nonzero" stroke="none" stroke-width="0" stroke-linecap="butt" stroke-linejoin="miter" stroke-miterlimit="10" stroke-dasharray="" stroke-dashoffset="0" style="mix-blend-mode: normal"><path d="M343.86123,75.90612c0,5.69466 -5.93341,5.80483 -9.60167,16.16909c-0.72986,2.06214 6.15561,2.95062 9.84066,5.56547c2.28557,1.6218 3.26299,3.73408 2.69269,5.18903c-2.31235,5.8993 -7.33358,6.94164 -11.3291,13.36067c-0.63959,1.02754 5.46661,2.03633 9.03201,4.37793c4.00288,2.62892 5.77188,7.36329 4.98088,8.55882c-2.56734,3.88032 -5.99947,6.97142 -9.63131,10.72922c-1.66465,1.72238 5.01574,4.2303 8.99664,6.90415c1.33641,0.89762 3.95785,3.22905 3.28665,5.93028c-1.10533,4.4484 -6.84943,9.89966 -10.277,11.60179c-1.9033,0.94518 3.60023,0.71977 8.31628,2.63017c2.10984,0.85466 5.38219,4.07053 4.00898,8.31003c-0.54818,1.69242 -3.38639,3.55714 -4.86384,5.30655c-2.08945,2.47406 -2.96119,4.71749 -3.80353,5.91669c-0.62687,0.89245 5.45821,-0.03735 8.59695,2.03334c1.38027,0.9106 4.62811,2.9383 4.03572,6.12738c-0.65596,3.53128 -5.34044,8.20317 -7.62093,8.16656c-1.23059,-0.01976 8.7696,3.77408 9.70619,8.80102c0.48665,2.61199 -3.06642,4.26936 -5.04784,6.74578c-2.20247,2.75268 -2.93538,6.22213 -4.0097,6.89577c-0.83109,0.52113 9.97368,-0.75016 11.89864,3.11072c1.30951,2.62648 -6.3376,9.64769 -5.67345,13.35754c0.35427,1.97892 8.59891,0.54907 10.14228,2.37138c1.04949,1.23917 1.44734,3.90857 0.42451,6.05453c-0.88982,1.86692 -3.15958,3.21578 -3.15908,4.42287c0.00045,1.07203 1.94315,0.33154 4.16887,0.55793c2.89715,0.29469 6.27381,1.53151 6.47049,3.4132c0.21691,2.07527 -1.42017,7.27773 -3.9483,10.7016c-1.98975,2.69473 -0.99824,4.21672 -0.84802,5.64558c0.43821,4.16821 15.2273,28.35466 6.35923,39.28592c-5.38161,6.63366 -29.0948,22.6796 -48.54034,26.64191c-23.99978,4.89031 -49.50321,1.12395 -50.90266,1.14236c-5.61467,0.07387 -40.4249,-2.98199 -46.12203,-1.22483c-1.29005,0.3979 -38.17021,3.71423 -54.16871,-9.07791c-8.159,-6.5238 -27.99729,-34.13186 -22.53924,-61.73449c6.96288,-35.21291 41.02701,-71.14459 41.02701,-71.14459c0,0 -8.25383,-0.10224 -13.43089,-0.02659c-8.26755,0.12081 -28.21791,-4.07895 -44.33596,-12.61537c-8.82594,-4.67439 -16.7782,-10.92492 -22.38674,-17.5048c-18.15734,-21.302 -13.3718,-51.43612 -11.24725,-62.68968c3.92773,-20.80486 19.82,-45.61681 46.34009,-63.09747c12.33278,-8.12913 34.71299,-18.85583 56.38159,-23.19151c23.14013,-4.63011 45.32795,-2.57005 49.01331,-1.77244c20.58404,4.45493 36.43637,15.34798 48.10611,29.7756c4.71697,5.83172 10.21838,11.82156 12.79989,18.84651c0.88017,2.39517 5.59195,1.35229 9.47357,1.53352c7.73325,0.36107 17.38834,2.62739 17.38834,7.89877z" fill="url(#color-1)"/><path d="M331.296,212.22581c0.78314,4.02005 3.24676,12.97998 6.82699,23.16442c2.04957,5.83028 4.46508,12.06185 7.14074,17.99769c7.18592,15.94167 25.27057,40.6463 21.0395,49.4572c-4.68378,9.75364 -22.85207,20.1162 -31.26948,25.15858c-23.7289,14.21461 -55.11536,8.08083 -56.43853,8.30043c-1.57382,0.26121 16.56397,-74.30075 14.60424,-74.00079c-15.44326,2.36377 -70.51533,-4.73082 -70.51533,-4.73082c0,0 -7.01086,79.9579 -10.53759,75.1944c-0.66118,-0.89305 -8.347,1.64054 -24.46154,-9.3029c-11.53782,-7.83537 -20.3964,-24.46112 -22.23075,-36.22345c-5.66573,-36.33014 38.47231,-84.48291 38.33417,-86.90751c-0.06884,-1.20829 17.88779,-0.51596 34.98403,-5.23587c10.3887,-2.8681 24.62458,-6.36332 32.46403,-9.63964c7.93223,-3.3151 9.40533,-6.39459 9.12375,-6.39459c-1.38966,0 -3.9487,-1.901 -7.45296,-1.06521c-17.45124,4.16224 -58.34454,18.69832 -94.99582,14.81215c-19.18533,-2.03424 -41.4724,-13.74585 -53.4278,-26.84172c-12.73036,-13.94475 -14.56432,-34.58004 -14.56432,-38.36415c0,-4.52551 1.66198,-25.11687 13.69652,-44.95635c8.86413,-14.61291 25.72163,-27.67159 39.57582,-37.47973c33.32942,-23.59572 82.69205,-21.19846 90.3682,-19.75701c13.72316,2.57698 34.3588,14.63334 49.88161,36.28293c5.12452,7.14715 15.39832,25.5632 19.04748,47.78259c5.64239,34.35601 3.94767,77.80504 8.80706,102.74935z" fill="url(#color-2)"/><path d="M133.67902,95.29311c9.11381,0 16.50203,7.42727 16.50203,16.58927c0,9.162 -7.62552,13.62307 -16.50203,11.1132c-9.11382,-2.57698 -16.50202,-1.95119 -16.50202,-11.1132c0,-9.162 7.3882,-16.58927 16.50202,-16.58927z" data-paper-data="{&quot;index&quot;:null}" fill="#81dfe8"/><path d="M155.79396,105.86205c-6.00412,2.87788 -13.62112,3.89756 -16.50001,3.89756c-6.27107,0 -2.81857,-2.69699 -2.81857,-4.83182c0,-1.08318 4.45569,-2.83617 10.09157,-4.80639c5.47187,-1.91289 10.36771,-2.90311 9.68069,-4.81132c-1.76753,-4.9093 -15.8029,-11.30971 -16.42053,-15.82572c-0.42984,-3.14287 2.28749,-4.06486 3.64346,-4.58937c1.92991,-0.74652 8.64058,5.22016 14.855,10.9108c4.24554,3.88771 8.68891,6.7877 9.52333,10.71972c0.83393,3.92968 -10.01333,8.35795 -12.05493,9.33653z" fill="#444444"/><path d="M296.13579,128.31059c0,9.162 -8.97461,8.53622 -20.04536,11.11319c-10.78249,2.50987 -20.04537,-1.95119 -20.04537,-11.11319c0,-9.162 8.97462,-16.58926 20.04537,-16.58926c11.07075,0 20.04536,7.42726 20.04536,16.58926z" fill="#81dfe8"/><path d="M239.52771,99.84506c2.34854,-3.26212 7.58387,-4.12509 13.03629,-5.97172c7.98098,-2.70301 16.52738,-4.3312 17.99268,-2.87011c1.02953,1.02657 3.78895,1.8382 2.12876,4.5412c-0.81522,1.32728 -8.01872,1.96948 -14.08638,3.38743c-4.63503,1.08316 -8.47312,3.02143 -9.09178,3.67175c-0.47591,0.50025 3.98815,4.12741 7.38634,6.52272c2.87331,2.02533 5.6988,3.47023 7.2427,5.77449c1.9935,2.9753 -2.35115,6.71446 -3.46858,6.65703c-2.96134,-0.1522 -7.37138,-4.5129 -9.52243,-7.02078c-1.47397,-1.71849 -13.96473,-11.43182 -11.61759,-14.692z" data-paper-data="{&quot;index&quot;:null}" fill="#444444"/></g></g></svg>